<svg width="20" height="19" viewBox="0 0 20 19" fill="none" xmlns="http://www.w3.org/2000/svg">
<path d="M15.3477 6.79302L16.8149 5.32583C18.6877 6.40629 19.9347 7.89939 19.9347 9.55397C19.9347 12.8571 14.9929 15.5274 9.96733 15.5344C8.94465 15.5343 7.92477 15.4274 6.9243 15.2154L8.66559 13.4751C9.0902 13.519 9.52478 13.5419 9.96434 13.5409H9.96633C9.55269 13.5409 9.15399 13.4781 8.77922 13.3615L10.7537 11.386C11.2222 11.1846 11.598 10.8089 11.8003 10.3404L13.7738 8.36586C13.9597 8.96103 14.0033 9.59149 13.9012 10.2066C13.7992 10.8217 13.5543 11.4043 13.1863 11.9075C12.8182 12.4108 12.3372 12.8207 11.782 13.1044C11.2268 13.3881 10.6127 13.5376 9.98926 13.5409C14.2204 13.5259 17.9412 11.364 17.9412 9.55397C17.9412 8.61405 16.9225 7.57446 15.3477 6.79302ZM6.07608 10.4261C5.94546 9.84343 5.94739 9.23885 6.08173 8.65701C6.21607 8.07518 6.47939 7.53095 6.85225 7.06452C7.22511 6.59809 7.69797 6.22137 8.23594 5.96218C8.7739 5.70299 9.36321 5.56795 9.96035 5.56704C5.75613 5.55209 1.99347 7.73792 1.99347 9.55397C1.99347 10.447 2.89451 11.4248 4.31286 12.1893L2.85963 13.6406C1.13029 12.5721 0 11.1338 0 9.55397C0 6.2508 4.96772 3.55663 9.96733 3.57357C10.8783 3.57656 11.7884 3.66727 12.6675 3.83472L10.8963 5.60491C10.6072 5.58299 10.3142 5.57003 10.0192 5.56704C10.3002 5.57102 10.5743 5.60392 10.8395 5.66272L6.07509 10.4261H6.07608ZM19.0296 0.291332C19.2165 0.478247 19.3215 0.731724 19.3215 0.996022C19.3215 1.26032 19.2165 1.5138 19.0296 1.70071L2.11507 18.6153C2.02319 18.7105 1.91326 18.7865 1.79169 18.8389C1.67012 18.8912 1.53935 18.9188 1.40701 18.92C1.27466 18.9213 1.1434 18.8961 1.02087 18.8461C0.898341 18.7961 0.787003 18.7221 0.693351 18.6286C0.5997 18.5351 0.525611 18.4239 0.475408 18.3014C0.425205 18.1789 0.399893 18.0477 0.400948 17.9154C0.402004 17.783 0.429406 17.6522 0.481556 17.5306C0.533706 17.4089 0.609559 17.2989 0.70469 17.2069L17.6192 0.292328C17.7118 0.199656 17.8217 0.126138 17.9427 0.0759779C18.0637 0.025818 18.1934 0 18.3244 0C18.4554 0 18.5851 0.025818 18.7061 0.0759779C18.8271 0.126138 18.937 0.199656 19.0296 0.292328V0.291332Z" fill="#7C7C7C"/>
</svg>
